<svg width="23" height="24" fill="none" xmlns="http://www.w3.org/2000/svg"><g clip-path="url(#clip0_258_40)" fill="#fff" stroke="#fff" stroke-width=".2"><path d="M16.874-.1v0H6.226C2.734-.1-.1 2.863-.1 6.497v11.007c0 3.633 2.834 6.596 6.326 6.596h10.548c3.492 0 6.326-2.963 6.326-6.596V6.497c0-3.6-2.78-6.54-6.226-6.596zm4.678 17.604c0 2.755-2.148 4.989-4.778 4.989H6.226c-2.63 0-4.778-2.234-4.778-4.99V6.498c0-2.756 2.148-4.99 4.778-4.99h10.548c2.63 0 4.778 2.234 4.778 4.99v11.007z"/><path d="M11.5 5.338C7.973 5.338 5.11 8.33 5.11 12s2.863 6.662 6.39 6.662c3.527 0 6.389-2.992 6.389-6.662s-2.862-6.662-6.39-6.662zm0 11.717c-2.665 0-4.84-2.263-4.84-5.055 0-2.791 2.175-5.055 4.84-5.055S16.34 9.209 16.34 12c0 2.792-2.175 5.055-4.84 5.055zm6.44-14.048c-1.085 0-1.959.919-1.959 2.04 0 1.12.874 2.039 1.958 2.039s1.959-.92 1.959-2.04-.875-2.039-1.959-2.039zm0 2.471a.422.422 0 01-.41-.432c0-.242.187-.432.41-.432.221 0 .41.19.41.432a.422.422 0 01-.41.432z"/></g><defs><clipPath id="clip0_258_40"><path fill="#fff" d="M0 0h23v24H0z"/></clipPath></defs></svg>