<svg width="25" height="17" fill="none" xmlns="http://www.w3.org/2000/svg"><path d="M2.344 0h20.312C23.95 0 25 .953 25 2.125v12.75C25 16.047 23.949 17 22.656 17H2.344C1.05 17 0 16.047 0 14.875V2.125C0 .953 1.051 0 2.344 0zm0 1.417a.846.846 0 00-.3.054L12.5 9.689l10.456-8.216a.847.847 0 00-.3-.055H2.344zm0 14.166h20.312c.431 0 .782-.317.782-.708V2.968L13.011 11.16a.83.83 0 01-.512.173.83.83 0 01-.512-.173L1.562 2.968v11.907c0 .39.35.708.782.708z" fill="#fff"/><path d="M1.92 1.629l-.278-.22.332-.125a1.04 1.04 0 01.37-.067h20.312c.132 0 .257.024.37.067l.332.126-.279.219-10.455 8.216-.124.097-.124-.097L1.921 1.629zM23.315 2.81l.323-.254v12.318c0 .52-.458.908-.98.908H2.343c-.523 0-.981-.389-.982-.908V2.557l.324.254 10.425 8.192a.63.63 0 00.389.13.63.63 0 00.389-.13l10.425-8.192zM22.656.2H2.344C1.143.2.2 1.082.2 2.125v12.75c0 1.043.943 1.925 2.144 1.925h20.312c1.201 0 2.144-.882 2.144-1.925V2.125C24.8 1.082 23.857.2 22.656.2z" stroke="#fff" stroke-opacity=".4" stroke-width=".4"/></svg>