<svg width="23" height="24" fill="none" xmlns="http://www.w3.org/2000/svg"><path d="M20.192 2.337c-.596-.548-3.005-2.297-8.376-2.32 0 0-6.332-.38-9.416 2.451C.685 4.184.08 6.701.015 9.818c-.066 3.116-.146 8.956 5.483 10.54h.005l-.005 2.419s-.037.98.61 1.176c.778.244 1.237-.502 1.982-1.303.408-.44.97-1.087 1.397-1.58 3.852.324 6.81-.417 7.147-.524.778-.253 5.18-.816 5.892-6.656.74-6.027-.356-9.833-2.334-11.553zm.651 11.113c-.604 4.874-4.171 5.183-4.827 5.394-.282.09-2.883.736-6.15.525 0 0-2.437 2.939-3.196 3.703-.248.248-.52.225-.516-.267 0-.324.02-4.017.02-4.017-.006 0-.006 0 0 0-4.772-1.322-4.49-6.295-4.44-8.896.052-2.6.544-4.733 1.997-6.168 2.61-2.367 7.987-2.015 7.987-2.015 4.541.019 6.716 1.387 7.222 1.847 1.673 1.434 2.526 4.865 1.903 9.894zm-6.515-3.787c.02.403-.585.43-.604.028-.052-1.031-.534-1.533-1.528-1.59-.403-.023-.366-.627.033-.604 1.307.07 2.034.82 2.1 2.166zm.952.53c.047-1.988-1.195-3.544-3.553-3.717-.398-.029-.356-.633.042-.605 2.719.197 4.167 2.067 4.115 4.335-.004.403-.614.385-.604-.014zm2.203.627c.004.403-.605.408-.605.005-.028-3.82-2.573-5.9-5.662-5.924-.398-.005-.398-.605 0-.605 3.455.024 6.234 2.41 6.267 6.524zm-.53 4.598v.01c-.506.89-1.453 1.874-2.428 1.56l-.01-.014c-.988-.276-3.318-1.476-4.79-2.648a12.308 12.308 0 01-1.986-1.987 15.208 15.208 0 01-1.444-2.184c-.998-1.805-1.219-2.61-1.219-2.61-.314-.976.666-1.922 1.561-2.429h.01c.43-.225.843-.15 1.12.183 0 0 .58.694.83 1.036.234.319.548.83.712 1.115.286.511.107 1.032-.174 1.247l-.562.45c-.286.23-.249.656-.249.656s.835 3.154 3.951 3.951c0 0 .427.038.657-.248l.45-.563c.215-.28.736-.459 1.246-.173.69.39 1.566.994 2.147 1.542.328.267.403.675.178 1.106z" fill="#fff"/></svg>