<svg width="177" height="151" fill="none" xmlns="http://www.w3.org/2000/svg"><path d="M87.841 0L42.106 26.41v52.82l45.735 26.409 45.736-26.41V26.41L87.841 0zm35.626 73.452L87.772 94.016 52.147 73.452V32.187L87.84 11.554l35.695 20.633v41.265h-.069z" fill="#fff"/><path d="M114.938 36.933v31.774L96.162 79.78V62.242H79.52V79.78L60.743 68.707V36.933L79.52 25.86v18.019h16.643v-18.02l18.776 11.074zM22.231 150.549h-5.304v-10.382H5.247v10.382H0v-24.657h5.247v9.704h11.624v-9.704h5.303v24.657h.057zm28.776 0H33.572v-24.657h17.435v4.626H38.82v5.191h11.962v4.627H38.82v5.586h12.187v4.627zM73.52 151c-3.724 0-6.884-1.185-9.367-3.555-2.482-2.369-3.78-5.416-3.78-9.197 0-3.78 1.241-6.827 3.78-9.197 2.483-2.37 5.643-3.554 9.367-3.554 4.627 0 8.068 2.031 10.325 6.037l-4.514 2.2a7.438 7.438 0 00-2.37-2.595c-1.071-.677-2.2-1.016-3.441-1.016-2.257 0-4.12.79-5.53 2.314-1.467 1.523-2.2 3.442-2.2 5.811 0 2.37.733 4.289 2.2 5.812 1.467 1.523 3.33 2.313 5.53 2.313 1.241 0 2.37-.338 3.442-1.015 1.072-.677 1.862-1.524 2.37-2.596l4.513 2.201C81.475 148.969 78.034 151 73.52 151zm30.92-.451h-5.304v-20.031h-7.222v-4.626h19.692v4.626h-7.166v20.031zm28.72.451c-3.724 0-6.827-1.185-9.253-3.611s-3.668-5.473-3.668-9.141c0-3.724 1.242-6.771 3.668-9.14 2.426-2.427 5.529-3.611 9.253-3.611s6.828 1.184 9.254 3.611c2.426 2.369 3.667 5.473 3.667 9.197 0 3.724-1.241 6.771-3.667 9.197-2.426 2.313-5.53 3.498-9.254 3.498zm-5.416-6.94c1.354 1.523 3.159 2.313 5.416 2.313 2.257 0 4.063-.79 5.417-2.313 1.354-1.523 2.088-3.442 2.088-5.812 0-2.369-.677-4.288-2.088-5.811-1.354-1.524-3.216-2.314-5.417-2.314-2.257 0-4.062.79-5.416 2.314-1.355 1.523-2.032 3.442-2.032 5.811 0 2.314.677 4.232 2.032 5.812zm48.467 6.489h-6.037l-4.852-8.746h-3.837v8.746h-5.248v-24.657h11.567c2.539 0 4.57.733 6.038 2.2 1.467 1.467 2.256 3.386 2.256 5.755 0 2.032-.507 3.668-1.579 4.909-1.072 1.242-2.314 2.031-3.837 2.426l5.529 9.367zm-9.197-13.373c1.072 0 1.975-.282 2.652-.902.677-.621 1.016-1.411 1.016-2.427 0-1.015-.339-1.805-1.016-2.426-.677-.621-1.58-.903-2.652-.903h-5.529v6.658h5.529z" fill="#fff"/></svg>