<svg width="17" height="27" fill="none" xmlns="http://www.w3.org/2000/svg"><path d="M15.25 7.172c.414 0 .75-.328.75-.732V1.732A.741.741 0 0015.25 1H9.625c-2.63 0-4.768 2.088-4.768 4.655v4.76H1.75a.741.741 0 00-.75.732v4.707c0 .404.336.732.75.732h3.107v8.682c0 .404.336.732.75.732h4.821a.74.74 0 00.75-.732v-8.682h3.107a.746.746 0 00.736-.589l.964-4.707a.719.719 0 00-.155-.608.757.757 0 00-.58-.268h-4.071V7.172h4.07zm-4.822 4.707h3.907l-.665 3.242h-3.242a.741.741 0 00-.75.732v8.682h-3.32v-8.681a.741.741 0 00-.75-.733H2.5V11.88h3.107a.74.74 0 00.75-.732V5.654c0-1.76 1.466-3.19 3.268-3.19H14.5v3.242h-4.072a.741.741 0 00-.75.733v4.706c0 .405.336.733.75.733z" fill="#fff"/><path d="M16.15 6.44c0 .49-.406.882-.9.882h-3.921v2.942h3.92c.27 0 .524.118.696.322 0 0 0 0 0 0l-.115.096c.143.17.2.393.155.608l.165-4.85zm0 0V1.732a.891.891 0 00-.9-.882H9.625c-2.709 0-4.918 2.152-4.918 4.805v4.61H1.75a.89.89 0 00-.9.881v4.707c0 .491.406.883.9.883h2.957v8.532c0 .49.406.882.9.882h4.821c.494 0 .9-.392.9-.882v-8.532h2.958a.896.896 0 00.882-.709l.964-4.707.018-4.88zm-5.721 5.589h3.722l-.603 2.942h-3.12c-.493 0-.9.392-.9.883v8.531h-3.02v-8.532a.891.891 0 00-.9-.882H2.65V12.03h2.957c.494 0 .9-.392.9-.883V5.655c0-1.673 1.396-3.04 3.118-3.04h4.725v2.942h-3.921c-.494 0-.9.392-.9.883v4.706c0 .491.406.883.9.883z" stroke="#fff" stroke-opacity=".4" stroke-width=".3"/></svg>