<svg width="92" height="36" fill="none" xmlns="http://www.w3.org/2000/svg"><g opacity=".25" fill="#fff" stroke="#000"><path d="M24.174 28.744c-2.363-.49-4.551-1.052-6.65-1.805h0c-2.092-.752-4.099-1.687-5.81-2.727l12.46 4.532zm0 0c2.37.495 4.925.914 7.939 1.223h0c3.008.304 6.466.499 9.982.48h.001l-.003-.5-17.92-1.203zm31.108.626c-1.299.307-2.654.58-4.016.817h-.001a75.666 75.666 0 01-7.382.934h0a92.18 92.18 0 01-8.574.273 94.352 94.352 0 01-9.128-.573 70.983 70.983 0 01-8.213-1.422h0c-2.544-.596-4.898-1.303-7.033-2.13h0c-2.141-.828-4.056-1.77-5.63-2.853h0c-1.576-1.078-2.814-2.297-3.609-3.376C.916 19.97.58 19.048.511 18.051c-.064-1.014.145-2.12.771-3.261.627-1.138 1.68-2.323 3.402-3.553l.001-.001c1.723-1.238 4.1-2.51 6.66-3.519.229-.09.46-.178.691-.264-.627.358-1.216.733-1.794 1.146-1.149.82-2.25 1.788-3.041 2.726-.8.95-1.281 1.877-1.523 2.949h0a7.386 7.386 0 00.045 3.379c.284 1.143.86 2.188 1.86 3.287h0c.994 1.088 2.418 2.232 4.131 3.271l43.568 5.16zM23.797 2.39c-1.566.2-3.076.44-4.445.683a73.983 73.983 0 015.767-1.236A84.66 84.66 0 0133.266.808h0a101.06 101.06 0 019.462-.296h.001c3.345.047 6.826.254 10.073.63h0a79.25 79.25 0 019.064 1.564c2.808.662 5.404 1.445 7.765 2.357 2.36.912 4.477 1.955 6.216 3.15h.002c1.745 1.192 3.115 2.538 3.989 3.739l.001.001c.87 1.184 1.244 2.21 1.317 3.32.074 1.127-.16 2.36-.85 3.62-.698 1.265-1.869 2.579-3.772 3.947h-.001c-1.908 1.375-4.53 2.788-7.363 3.906h0c-.465.183-.935.359-1.403.526a23.88 23.88 0 002.577-1.607h.001c1.26-.91 2.476-1.971 3.346-3.005h.001c.875-1.044 1.403-2.055 1.664-3.232a8.122 8.122 0 00-.045-3.7v-.002c-.316-1.248-.938-2.393-2.039-3.602h0c-1.094-1.197-2.665-2.454-4.548-3.598-1.884-1.144-4.09-2.178-6.4-3.006-2.312-.828-4.718-1.448-7.326-1.99a84.09 84.09 0 00-8.747-1.345h0a105.75 105.75 0 00-11.008-.532c-3.876.019-7.81.27-11.447.737h0zm-9.994 28.814a127.74 127.74 0 003.867.817l-.133.445.134-.445.358.07a59.545 59.545 0 01-3.391-1.113l.02-.095-.02.094c-.238-.085-.469-.17-.691-.253-1.364-.31-2.042-.5-2.56-.66l-.07.171m2.486.97l-4.05-1.6a.484.484 0 00.017-.049 488.7 488.7 0 011.245.391m2.788 1.257a97.187 97.187 0 01-2.486-.969m0 0l.07-.17-.372-.118m.303.288l-.35-.14.047-.148m0 0l-.047.147"/><path d="M15.611 14.573h0l-.003.003c-.691.642-1.053 1.434-1.053 2.356 0 .92.36 1.719 1.055 2.357.055.051.111.1.169.147a3.973 3.973 0 01-.239-.202c-.7-.646-1.034-1.408-1.034-2.302 0-.895.334-1.656 1.035-2.303.106-.098.216-.19.33-.273-.089.068-.176.14-.26.217zm4.823 4.805l-.04.032v-1.926h.04v1.894zm6.162-1.868l-.253-.64-.685-1.729-.465-1.173-.465 1.173-.685 1.73-.253.639h-.001l-.125.316-.905 2.297h-.03l2.462-6.238 2.466 6.238h-.03l-.906-2.297-.125-.316h0zm3.334 2.154v.46h-.035v-6.388h.035v5.928zm8.675-2.154l-.253-.64-.686-1.729-.464-1.173-.465 1.173-.686 1.73-.253.639h0l-.125.316-.906 2.297h-.03l2.462-6.238 2.467 6.238h-.03l-.906-2.297-.125-.316h0zm3.199 2.613l2.041-3.266.166-.265-.166-.265-1.62-2.59h.012l1.356 2.17.422.675.425-.673 1.37-2.173h.01l-1.63 2.59-.168.266.167.266 2.052 3.265h-.01L44.44 17.28l-.425-.674-.422.675-1.777 2.842h-.012zm9.122-2.463v-.144l-.077-.121-2.29-3.659h.011l1.947 3.112.423.675.424-.674 1.956-3.113h.02l-2.298 3.658-.077.122v2.607h-.04V17.66zm8.508-3.924v6.387h-.04v-6.387h.04zm3.978 0h.044v6.387h-.044v-6.387z"/></g></svg>