<svg width="53" height="56" fill="none" xmlns="http://www.w3.org/2000/svg"><path d="M46.874 5.425C45.492 4.152 39.899.094 27.43.04c0 0-14.699-.88-21.858 5.69C1.59 9.713.186 15.556.034 22.79c-.153 7.236-.338 20.793 12.73 24.47h.01l-.01 5.614s-.087 2.274 1.414 2.731c1.806.566 2.873-1.164 4.603-3.024.946-1.023 2.252-2.525 3.242-3.667 8.944.75 15.809-.968 16.592-1.219 1.807-.587 12.023-1.893 13.677-15.45 1.72-13.992-.827-22.827-5.418-26.82zm1.512 25.797c-1.404 11.316-9.684 12.034-11.207 12.524-.653.206-6.691 1.708-14.275 1.218 0 0-5.657 6.822-7.42 8.596-.577.576-1.208.522-1.197-.62 0-.751.043-9.325.043-9.325-.01 0-.01 0 0 0C3.255 40.547 3.908 29.003 4.027 22.965c.12-6.04 1.262-10.99 4.635-14.32 6.06-5.494 18.54-4.678 18.54-4.678 10.543.044 15.591 3.22 16.766 4.287 3.885 3.33 5.865 11.294 4.418 22.968zm-15.124-8.79c.044.935-1.36 1-1.403.064-.12-2.393-1.24-3.557-3.547-3.688-.936-.054-.849-1.458.076-1.404 3.035.164 4.722 1.904 4.874 5.027zm2.209 1.229c.109-4.614-2.774-8.226-8.247-8.629-.925-.065-.827-1.468.098-1.403 6.31.457 9.672 4.798 9.553 10.064-.011.936-1.426.892-1.404-.032zm5.114 1.458c.01.935-1.404.946-1.404.01-.065-8.867-5.973-13.698-13.143-13.752-.925-.011-.925-1.404 0-1.404 8.019.055 14.47 5.593 14.547 15.146zm-1.23 10.673v.022c-1.175 2.067-3.373 4.352-5.636 3.623l-.022-.033c-2.295-.642-7.703-3.427-11.12-6.147a28.44 28.44 0 01-4.612-4.613 35.304 35.304 0 01-3.352-5.07c-2.317-4.19-2.829-6.06-2.829-6.06-.729-2.264 1.545-4.462 3.624-5.637h.021c1.001-.522 1.959-.348 2.6.425 0 0 1.35 1.61 1.927 2.404.544.74 1.273 1.926 1.654 2.59.663 1.186.25 2.393-.403 2.894L19.9 21.234c-.663.533-.576 1.523-.576 1.523s1.936 7.323 9.172 9.173c0 0 .99.087 1.523-.577l1.044-1.306c.501-.652 1.709-1.066 2.895-.402 1.599.903 3.634 2.306 4.983 3.58.761.62.935 1.566.413 2.567z" fill="#878787"/></svg>